<svg xmlns="http://www.w3.org/2000/svg" xmlns:xlink="http://www.w3.org/1999/xlink" width="197" height="60" viewBox="0 0 197 60">
  <defs>
    <clipPath id="clip-path">
      <rect id="Rectangle_33" data-name="Rectangle 33" width="197" height="60" rx="5" transform="translate(285 623)" fill="#35b8be"/>
    </clipPath>
  </defs>
  <g id="Button_Wave" data-name="Button Wave" transform="translate(-285 -623)" clip-path="url(#clip-path)">
    <g id="Wave_Plain" data-name="Wave Plain" transform="translate(279.457 -4029.558)">
      <g id="Group_177" data-name="Group 177" transform="translate(-130.494 4509.063)" opacity="0.2">
        <path id="Path_811" data-name="Path 811" d="M688.942,5204.376c2.657,1.7,3.116,5.252,4.22,8.205,1.028,2.746,2.069,5.421,1.976,8.354-.109,3.451.214,7.712-2.549,9.784-2.783,2.089-6.7-.381-10.175-.234-3.144.131-6.548,2.815-9.151,1.049-2.631-1.785-1.363-6-2.511-8.966-1.058-2.735-4.2-4.721-3.911-7.642.288-2.964,3.064-4.962,5.325-6.9a17.241,17.241,0,0,1,7.472-4.07C682.748,5203.279,686.259,5202.667,688.942,5204.376Z" transform="translate(-563.634 -5100.915)" fill="none" stroke="#fff" stroke-width="1" fill-rule="evenodd"/>
        <path id="Path_812" data-name="Path 812" d="M650.253,5153.25c4.292,2.736,5.041,8.468,6.832,13.227,1.666,4.429,3.353,8.738,3.211,13.466-.167,5.56.365,12.423-4.089,15.755-4.487,3.358-10.815-.631-16.423-.405-5.074.207-10.561,4.522-14.767,1.67-4.251-2.882-2.215-9.668-4.075-14.451-1.715-4.409-6.783-7.613-6.332-12.318.458-4.776,4.932-7.991,8.577-11.108,3.557-3.044,7.466-5.551,12.048-6.537C640.254,5151.465,645.919,5150.486,650.253,5153.25Z" transform="translate(-520.801 -5058.431)" fill="none" stroke="#fff" stroke-width="1" fill-rule="evenodd"/>
        <path id="Path_813" data-name="Path 813" d="M612.777,5103.722c5.877,3.746,6.907,11.582,9.362,18.092,2.284,6.056,4.6,11.955,4.406,18.413-.224,7.608.511,16.989-5.581,21.542-6.136,4.588-14.8-.873-22.475-.566-6.944.276-14.448,6.172-20.207,2.268-5.82-3.948-3.041-13.222-5.59-19.764-2.351-6.033-9.29-10.419-8.677-16.853.622-6.53,6.742-10.919,11.727-15.181,4.866-4.158,10.213-7.582,16.482-8.927C599.091,5101.271,606.843,5099.941,612.777,5103.722Z" transform="translate(-479.309 -5017.275)" fill="none" stroke="#fff" stroke-width="1" fill-rule="evenodd"/>
        <path id="Path_814" data-name="Path 814" d="M578.929,5058.979c7.308,4.658,8.591,14.4,11.646,22.486,2.843,7.53,5.72,14.859,5.487,22.888-.275,9.451.643,21.108-6.929,26.766-7.627,5.7-18.4-1.092-27.941-.718-8.633.342-17.959,7.666-25.121,2.811-7.238-4.907-3.787-16.432-6.959-24.562-2.925-7.5-11.554-12.953-10.8-20.946.77-8.113,8.377-13.567,14.572-18.86,6.047-5.165,12.693-9.418,20.487-11.087C561.912,5055.926,571.549,5054.275,578.929,5058.979Z" transform="translate(-441.834 -4980.097)" fill="none" stroke="#fff" stroke-width="1" fill-rule="evenodd"/>
        <path id="Path_815" data-name="Path 815" d="M547.5,5017.44c8.637,5.5,10.157,17.008,13.769,26.567,3.361,8.894,6.763,17.554,6.489,27.036-.322,11.165.766,24.94-8.18,31.619-9.011,6.73-21.744-1.295-33.017-.852-10.2.4-21.219,9.048-29.683,3.309-8.554-5.8-4.479-19.41-8.23-29.015-3.458-8.859-13.656-15.306-12.762-24.748.907-9.587,9.895-16.028,17.214-22.277,7.144-6.1,15-11.122,24.205-13.093C527.387,5013.83,538.774,5011.883,547.5,5017.44Z" transform="translate(-407.033 -4945.579)" fill="none" stroke="#fff" stroke-width="1" fill-rule="evenodd"/>
        <path id="Path_816" data-name="Path 816" d="M514.853,4974.3c10.016,6.382,11.781,19.721,15.972,30.8,3.9,10.311,7.845,20.353,7.53,31.348-.369,12.947.9,28.916-9.478,36.659-10.448,7.8-25.216-1.507-38.289-1-11.83.46-24.605,10.488-34.421,3.832-9.92-6.725-5.2-22.506-9.549-33.643-4.012-10.271-15.84-17.748-14.8-28.7,1.05-11.112,11.472-18.58,19.958-25.824,8.284-7.07,17.388-12.892,28.067-15.174C491.534,4970.11,504.738,4967.853,514.853,4974.3Z" transform="translate(-370.894 -4909.732)" fill="none" stroke="#fff" stroke-width="1" fill-rule="evenodd"/>
        <path id="Path_817" data-name="Path 817" d="M474.957,4921.573c11.7,7.459,13.767,23.04,18.664,35.985,4.558,12.046,9.17,23.775,8.8,36.617-.43,15.121,1.05,33.774-11.068,42.819-12.2,9.107-29.458-1.766-44.73-1.173-13.821.536-28.744,12.244-40.213,4.47-11.591-7.857-6.077-26.29-11.162-39.3-4.689-12-18.508-20.731-17.3-33.521,1.225-12.979,13.4-21.7,23.311-30.159,9.676-8.258,20.311-15.054,32.787-17.72C447.714,4916.675,463.14,4914.043,474.957,4921.573Z" transform="translate(-326.724 -4865.92)" fill="none" stroke="#fff" stroke-width="1" fill-rule="evenodd"/>
        <path id="Path_818" data-name="Path 818" d="M431.436,4864.053c13.543,8.628,15.934,26.657,21.6,41.635,5.275,13.938,10.614,27.51,10.193,42.367-.5,17.495,1.219,39.075-12.8,49.535-14.12,10.536-34.087-2.047-51.759-1.361-15.992.617-33.258,14.163-46.53,5.166-13.413-9.091-7.036-30.416-12.922-45.47-5.428-13.881-21.419-23.989-20.025-38.783,1.416-15.019,15.5-25.1,26.969-34.891,11.2-9.552,23.5-17.414,37.936-20.494C399.911,4858.381,417.76,4855.338,431.436,4864.053Z" transform="translate(-278.54 -4818.123)" fill="none" stroke="#fff" stroke-width="1" fill-rule="evenodd"/>
        <path id="Path_819" data-name="Path 819" d="M389.119,4808.128c15.332,9.77,18.04,30.176,24.459,47.13,5.974,15.776,12.019,31.139,11.544,47.957-.56,19.8,1.383,44.227-14.484,56.067-15.984,11.923-38.588-2.323-58.593-1.55-18.1.7-37.647,16.028-52.672,5.844-15.185-10.293-7.968-34.43-14.633-51.469-6.146-15.711-24.249-27.154-22.673-43.9,1.6-17,17.543-28.411,30.525-39.488,12.672-10.812,26.6-19.709,42.942-23.194C353.432,4801.707,373.637,4798.263,389.119,4808.128Z" transform="translate(-231.69 -4771.654)" fill="none" stroke="#fff" stroke-width="1" fill-rule="evenodd"/>
        <path id="Path_820" data-name="Path 820" d="M350.437,4757c16.968,10.81,19.966,33.39,27.071,52.148,6.611,17.458,13.3,34.456,12.777,53.066-.618,21.91,1.534,48.941-16.024,62.04-17.688,13.194-42.7-2.571-64.841-1.717-20.033.77-41.659,17.733-58.287,6.461-16.8-11.392-8.82-38.1-16.2-56.952-6.8-17.388-26.837-30.05-25.093-48.58,1.77-18.809,19.411-31.437,33.777-43.693,14.022-11.962,29.435-21.8,47.518-25.66C310.944,4749.892,333.3,4746.084,350.437,4757Z" transform="translate(-188.863 -4729.171)" fill="none" stroke="#fff" stroke-width="1" fill-rule="evenodd"/>
        <path id="Path_821" data-name="Path 821" d="M309.335,4702.675c18.706,11.919,22.012,36.806,29.846,57.487,7.29,19.246,14.666,37.983,14.088,58.5-.679,24.148,1.7,53.944-17.661,68.382-19.5,14.542-47.073-2.836-71.477-1.9-22.084.851-45.922,19.545-64.254,7.119-18.526-12.558-9.726-42-17.859-62.778-7.5-19.165-29.586-33.124-27.665-53.55,1.95-20.734,21.4-34.652,37.232-48.162,15.457-13.186,32.447-24.035,52.381-28.283C265.8,4694.837,290.447,4690.639,309.335,4702.675Z" transform="translate(-143.357 -4684.029)" fill="none" stroke="#fff" stroke-width="1" fill-rule="evenodd"/>
        <path id="Path_822" data-name="Path 822" d="M264.6,4643.556c20.6,13.126,24.24,40.525,32.866,63.3,8.027,21.187,16.15,41.818,15.516,64.4-.747,26.589,1.869,59.394-19.442,75.289-21.466,16.01-51.831-3.124-78.7-2.093-24.316.933-50.563,21.516-70.747,7.833-20.4-13.826-10.711-46.236-19.667-69.12-8.259-21.1-32.578-36.474-30.464-58.961,2.146-22.825,23.557-38.149,40.992-53.021,17.018-14.517,35.724-26.459,57.673-31.137C216.665,4634.923,243.8,4630.3,264.6,4643.556Z" transform="translate(-93.832 -4634.904)" fill="none" stroke="#fff" stroke-width="1" fill-rule="evenodd"/>
      </g>
    </g>
  </g>
</svg>
