<svg xmlns="http://www.w3.org/2000/svg" width="19.558" height="13.78"><g opacity=".5"><path fill="#0c2050" d="M19.138 2.171a16.889 16.889 0 01.353 2.935q.067 1.639.067 1.792t-.067 1.791a16.889 16.889 0 01-.353 2.936 2.686 2.686 0 01-.638 1.1 2.3 2.3 0 01-1.1.638 28.117 28.117 0 01-4.375.353q-2.906.067-3.25.067t-3.25-.067a28.117 28.117 0 01-4.375-.353 2.3 2.3 0 01-1.1-.638 2.686 2.686 0 01-.629-1.1A16.889 16.889 0 01.066 8.69Q0 7.051 0 6.898t.067-1.792a16.889 16.889 0 01.354-2.935 2.605 2.605 0 01.638-1.1 2.34 2.34 0 011.1-.629A26.18 26.18 0 016.534.07Q9.44.003 9.784.003t3.25.067a26.18 26.18 0 014.375.372 2.34 2.34 0 011.1.629 2.605 2.605 0 01.635 1.1zM7.777 9.795l5.111-2.9-5.111-2.913z" data-name="Path 442"/></g></svg>