<svg xmlns="http://www.w3.org/2000/svg" width="19.519" height="15.856"><g opacity=".5"><path fill="#0c2050" d="M19.519 1.884a8.261 8.261 0 01-2.3.629 4.109 4.109 0 001.08-.949 4.008 4.008 0 00.686-1.278 7.88 7.88 0 01-2.554.972 4 4 0 00-1.3-.925 3.908 3.908 0 00-1.62-.334 3.975 3.975 0 00-2.831 1.172 3.975 3.975 0 00-1.172 2.831 4.3 4.3 0 00.1.915 11.46 11.46 0 01-4.632-1.249A11.365 11.365 0 011.359.725a4.2 4.2 0 00-.534 2.02 3.908 3.908 0 00.474 1.916 4.029 4.029 0 001.3 1.423 3.974 3.974 0 01-1.818-.5v.038a4.039 4.039 0 00.918 2.552 3.992 3.992 0 002.3 1.373 3.738 3.738 0 01-1.065.157 3.6 3.6 0 01-.744-.076 3.947 3.947 0 001.4 1.973 4.078 4.078 0 002.335.81 8.117 8.117 0 01-2.3 1.244 8.317 8.317 0 01-2.679.467 7.989 7.989 0 01-.947-.058 11.358 11.358 0 002.888 1.325 11.228 11.228 0 003.25.467q5.548-.209 8.464-3.708a11.832 11.832 0 002.935-7.691q0-.248-.019-.515a8.325 8.325 0 002-2.054z" data-name="Path 440"/></g></svg>