<svg xmlns="http://www.w3.org/2000/svg" width="17.091" height="17.087" viewBox="0 0 17.091 17.087">
  <g id="social-instagram" transform="translate(0 0)" opacity="0.5">
    <path id="Path_443" data-name="Path 443" d="M12.755-9.335a2.8,2.8,0,0,0-.833-2.011,2.8,2.8,0,0,0-2-.83,2.8,2.8,0,0,0-2.011.829,2.8,2.8,0,0,0-.829,2.011A2.8,2.8,0,0,0,7.9-7.324,2.8,2.8,0,0,0,9.918-6.5a2.8,2.8,0,0,0,2-.829,2.8,2.8,0,0,0,.833-2.011Zm1.544,0a4.4,4.4,0,0,1-1.287,3.1A4.4,4.4,0,0,1,9.918-4.951a4.4,4.4,0,0,1-3.1-1.287,4.4,4.4,0,0,1-1.287-3.1,4.4,4.4,0,0,1,1.287-3.1,4.4,4.4,0,0,1,3.1-1.288,4.4,4.4,0,0,1,3.1,1.287,4.4,4.4,0,0,1,1.284,3.1Zm1.2-4.555a1.05,1.05,0,0,1-.3.725.982.982,0,0,1-.725.286.982.982,0,0,1-.725-.286.982.982,0,0,1-.286-.725.982.982,0,0,1,.286-.725.982.982,0,0,1,.725-.286.982.982,0,0,1,.725.286,1.05,1.05,0,0,1,.3.724ZM9.918-16.332q-1.029-.019-2.564,0a8.022,8.022,0,0,0-2.468.343,3.118,3.118,0,0,0-.524.267,2.73,2.73,0,0,0-.458.372,2.73,2.73,0,0,0-.372.458,3.117,3.117,0,0,0-.267.524A8.022,8.022,0,0,0,2.922-11.9Q2.9-10.365,2.9-9.335t.019,2.564A8.022,8.022,0,0,0,3.265-4.3a3.117,3.117,0,0,0,.267.524,2.73,2.73,0,0,0,.372.458,2.73,2.73,0,0,0,.458.372,3.117,3.117,0,0,0,.524.267,8.022,8.022,0,0,0,2.468.343q1.534.019,2.564.019t2.564-.019a8.022,8.022,0,0,0,2.468-.343,3.118,3.118,0,0,0,.524-.267,2.73,2.73,0,0,0,.458-.372,2.73,2.73,0,0,0,.372-.458,3.118,3.118,0,0,0,.267-.524,8.022,8.022,0,0,0,.343-2.468q.019-1.534.019-2.564T16.913-11.9a8.022,8.022,0,0,0-.343-2.468,3.117,3.117,0,0,0-.267-.524,2.729,2.729,0,0,0-.372-.458,2.73,2.73,0,0,0-.458-.372,3.118,3.118,0,0,0-.524-.267,8.022,8.022,0,0,0-2.468-.343Q10.944-16.351,9.918-16.332Zm8.54,7q.019,1.754-.057,3.526a6.714,6.714,0,0,1-.343,1.925A4.247,4.247,0,0,1,17.01-2.245,4.247,4.247,0,0,1,15.37-1.2a6.714,6.714,0,0,1-1.925.343Q11.668-.776,9.918-.8,8.164-.776,6.391-.853A6.714,6.714,0,0,1,4.466-1.2,4.247,4.247,0,0,1,2.823-2.244,4.247,4.247,0,0,1,1.775-3.884a6.714,6.714,0,0,1-.343-1.925q-.077-1.77-.057-3.526-.019-1.754.057-3.526a6.714,6.714,0,0,1,.343-1.925,4.247,4.247,0,0,1,1.048-1.64,4.247,4.247,0,0,1,1.639-1.048,6.714,6.714,0,0,1,1.925-.343q1.773-.076,3.526-.057,1.754-.019,3.526.057a6.714,6.714,0,0,1,1.925.343A4.247,4.247,0,0,1,17-16.427a4.247,4.247,0,0,1,1.048,1.639,6.714,6.714,0,0,1,.343,1.925q.078,1.777.059,3.527Z" transform="translate(-1.371 17.879)" fill="#0c2050"/>
  </g>
</svg>
